HIERARCHY
ROOT Hips
{
OFFSET -0.1795 -22.3333 2.8219000000000003
	CHANNELS 6 Xposition Yposition Zposition Zrotation Yrotation Xrotation 
	JOINT LeftUpLeg
	{
OFFSET 6.952 -9.140600000000001 -0.6815
		CHANNELS 3 Zrotation Yrotation Xrotation
		JOINT LeftLeg
		{
OFFSET 3.4277 -37.5199 -0.4496
			CHANNELS 3 Zrotation Yrotation Xrotation
			JOINT LeftFoot
			{
OFFSET -1.3596000000000001 -39.7961 -4.3693
				CHANNELS 3 Zrotation Yrotation Xrotation
				JOINT LeftToe
				{
OFFSET 2.6358 -5.5791 11.9288
					CHANNELS 3 Zrotation Yrotation Xrotation
					End Site
					{
OFFSET 0.0 0.0 0.0
					}
				}
			}
		}
	}
	JOINT RightUpLeg
	{
OFFSET -6.7669999999999995 -9.052200000000001 -0.432
		CHANNELS 3 Zrotation Yrotation Xrotation
		JOINT RightLeg
		{
OFFSET -3.8289999999999997 -38.2569 -0.885
			CHANNELS 3 Zrotation Yrotation Xrotation
			JOINT RightFoot
			{
OFFSET 1.5774 -39.8415 -4.2312
				CHANNELS 3 Zrotation Yrotation Xrotation
				JOINT RightToe
				{
OFFSET -2.5372 -4.8144 12.3348
					CHANNELS 3 Zrotation Yrotation Xrotation
					End Site
					{
OFFSET 0.0 0.0 0.0
					}
				}
			}
		}
	}
	JOINT Spine
	{
OFFSET -0.2533 10.8963 -2.6696
		CHANNELS 3 Zrotation Yrotation Xrotation
		JOINT Spine1
		{
OFFSET 0.5487 13.517999999999999 0.1092
			CHANNELS 3 Zrotation Yrotation Xrotation
			JOINT Spine2
			{
OFFSET 0.1457 5.292199999999999 2.5425
				CHANNELS 3 Zrotation Yrotation Xrotation
				JOINT Neck
				{
OFFSET -0.2778 21.387 -4.2857
					CHANNELS 3 Zrotation Yrotation Xrotation
					JOINT Head
					{
OFFSET 0.5152 6.497 5.1349
						CHANNELS 3 Zrotation Yrotation Xrotation
						End Site
						{
OFFSET 0.0 0.0 0.0
						}
					}
				}
				JOINT LeftShoulder
				{
OFFSET 7.8845 12.1749 -3.4090000000000003
					CHANNELS 3 Zrotation Yrotation Xrotation
					JOINT LeftArm
					{
OFFSET 9.0977 3.0469 -0.8867999999999999
						CHANNELS 3 Zrotation Yrotation Xrotation
						JOINT LeftForeArm
						{
OFFSET 25.9612 -1.2772000000000001 -2.7456
							CHANNELS 3 Zrotation Yrotation Xrotation
							JOINT LeftHand
							{
OFFSET 24.9234 0.8986 -0.1171
								CHANNELS 3 Zrotation Yrotation Xrotation
								End Site
								{
OFFSET 0.0 0.0 0.0
								}
							}
						}
					}
				}
				JOINT RightShoulder
				{
OFFSET -8.1759 11.8833 -3.8614999999999995
					CHANNELS 3 Zrotation Yrotation Xrotation
					JOINT RightArm
					{
OFFSET -9.6012 3.2550999999999997 -0.9143
						CHANNELS 3 Zrotation Yrotation Xrotation
						JOINT RightForeArm
						{
OFFSET -25.374200000000002 -1.3329 -2.1401
							CHANNELS 3 Zrotation Yrotation Xrotation
							JOINT RightHand
							{
OFFSET -25.5298 0.7772 -0.5559
								CHANNELS 3 Zrotation Yrotation Xrotation
								End Site
								{
OFFSET 0.0 0.0 0.0
								}
							}
						}
					}
				}
			}
		}
	}
}
MOTION
Frames: 6
Frame Time: 0.050000
0.0 95.15820000000001 0.0 -2.804113 2.537869 0.461938 6.554149 -0.231606 -3.157233 -0.988921 -0.107700 7.380670 2.647121 6.978036 4.082414 0.000000 0.000000 0.000000 -4.440134 0.453783 -6.027612 0.781075 0.151765 8.032037 -2.395846 -8.256694 7.786055 0.000000 0.000000 0.000000 0.185718 -0.315626 7.058829 -1.503079 0.823075 -5.616740 -0.290080 0.803124 10.588642 4.206923 -1.269695 -16.179089 0.000000 0.000000 0.000000 -12.106588 7.454384 -4.761737 -49.927936 8.412897 -9.780797 -12.602799 -21.997546 3.218135 0.000000 0.000000 0.000000 14.111093 -5.600847 -3.497465 55.540904 -3.157341 -7.371364 13.689821 24.822676 3.840957 0.000000 0.000000 0.000000
-0.0899 95.3022 -0.0745 -2.854350 2.811756 0.880516 6.428565 -0.234649 -2.920207 -0.339705 -0.171378 6.057561 2.322173 6.178519 3.511711 0.000000 0.000000 0.000000 -4.428562 0.451218 -5.933846 0.944555 0.092620 7.033165 -2.799350 -9.074725 7.801032 0.000000 0.000000 0.000000 -0.228940 -0.268844 6.640258 -1.301070 0.724685 -4.768262 -0.083886 -0.912382 9.016912 2.838336 -0.469378 -17.197833 0.000000 0.000000 0.000000 -11.839198 9.050078 -5.253380 -51.057456 8.286624 -9.817357 -11.088576 -20.415325 2.773848 0.000000 0.000000 0.000000 12.797707 -4.403043 -3.052263 56.602468 -4.588746 -8.028404 14.082544 25.854838 3.967155 0.000000 0.000000 0.000000
-0.1889 95.214 -0.12310000000000001 -2.590255 2.371419 0.945247 6.076675 -0.227084 -2.826916 -0.206669 -0.198178 6.292487 1.988571 5.465112 3.344771 0.000000 0.000000 0.000000 -4.198950 0.444488 -5.629627 0.787162 0.098687 6.133538 -2.434896 -8.251251 7.359580 0.000000 0.000000 0.000000 -0.401583 -0.223104 5.855482 -0.942408 0.586201 -5.710961 -0.416014 -0.907170 10.287793 3.390290 -0.662208 -18.983396 0.000000 0.000000 0.000000 -11.470392 6.830259 -4.133046 -52.404831 7.608949 -9.937587 -11.117437 -20.970913 2.881213 0.000000 0.000000 0.000000 13.012697 -4.080864 -2.922727 57.868053 -3.186540 -7.694873 9.666423 25.215860 2.948539 0.000000 0.000000 0.000000
-0.3386 95.1983 -0.1193 -2.889983 2.768986 0.286916 6.252259 -0.208394 -2.435433 -0.143416 -0.227301 6.711085 1.934095 5.158861 2.766392 0.000000 0.000000 0.000000 -3.796822 0.432025 -5.400356 0.647237 0.145989 7.068491 -2.510504 -8.330799 7.164262 0.000000 0.000000 0.000000 -0.632911 -0.237771 6.531578 -1.330964 0.736239 -4.618798 0.396314 -2.602325 9.198416 2.544611 -0.368313 -18.715800 0.000000 0.000000 0.000000 -11.646160 6.996645 -4.043136 -52.826857 6.096732 -9.264168 -9.810503 -19.492265 2.503798 0.000000 0.000000 0.000000 11.957450 -2.021080 -2.090211 57.743402 -1.989318 -7.077482 8.742741 22.956733 2.374363 0.000000 0.000000 0.000000
-0.5559999999999999 95.1292 -0.0642 -2.877420 2.682354 -0.374238 6.353683 -0.177672 -1.874276 -0.027947 -0.257847 7.008088 1.670437 4.486069 2.366402 0.000000 0.000000 0.000000 -3.766293 0.400612 -5.009471 0.703778 0.152533 7.618317 -2.823595 -8.983023 7.094372 0.000000 0.000000 0.000000 -0.766857 -0.262483 7.371886 -1.107472 0.640798 -4.608635 0.158249 -2.350718 8.978747 2.567694 -0.412913 -18.013144 0.000000 0.000000 0.000000 -12.344410 5.797252 -3.620864 -52.240146 4.420705 -8.466328 -9.779368 -18.752646 2.382547 0.000000 0.000000 0.000000 12.146300 -1.691604 -1.925552 57.353189 -1.377974 -6.717096 9.010697 21.597677 2.269828 0.000000 0.000000 0.000000
-0.8552000000000001 94.9923 0.0446 -2.847772 2.357756 -0.854023 6.830335 -0.165558 -1.854618 -0.110565 -0.280042 7.987583 1.878177 4.687156 1.833352 0.000000 0.000000 0.000000 -3.736209 0.409994 -5.177441 0.611554 0.205597 8.733015 -2.690886 -8.489165 6.081977 0.000000 0.000000 0.000000 -1.090950 -0.264839 8.076254 -1.084859 0.636299 -4.996364 0.472074 -2.678633 9.290642 3.041925 -0.800020 -17.726687 0.000000 0.000000 0.000000 -12.389448 5.542443 -3.420468 -52.118696 3.754043 -8.204605 -9.603028 -18.432206 2.334575 0.000000 0.000000 0.000000 11.560763 -1.064486 -1.642379 57.318178 -0.801987 -6.501588 9.292638 20.675304 2.186023 0.000000 0.000000 0.000000
